<svg width="24" height="27" viewBox="0 0 24 27" fill="none" xmlns="http://www.w3.org/2000/svg">
<path d="M18 7.00001V7.00001C19.6569 7.00001 21 8.34315 21 10L21 12.1429C21 12.477 21 12.644 20.9234 12.766C20.8834 12.8296 20.8296 12.8834 20.766 12.9234C20.644 13 20.477 13 20.1429 13L15 13M18 7.00001V7.00001C16.3431 7.00001 15 8.34315 15 10L15 13M18 7.00001L7 7.00001C5.11438 7.00001 4.17157 7.00001 3.58579 7.58579C3 8.17158 3 9.11439 3 11L3 25L6 24L9 25L12 24L15 25L15 13" stroke="white" stroke-width="2"/>
<path d="M7 7L11 7" stroke="white" stroke-width="2" stroke-linecap="round"/>
<path d="M8 11H7" stroke="white" stroke-width="2" stroke-linecap="round"/>
<path d="M7 15L10 15" stroke="white" stroke-width="2" stroke-linecap="round"/>
</svg>
